<?xml version="1.0" encoding="utf-8"?>
<!-- Generator: Adobe Illustrator 15.0.0, SVG Export Plug-In . SVG Version: 6.00 Build 0)  -->
<!DOCTYPE svg PUBLIC "-//W3C//DTD SVG 1.1//EN" "http://www.w3.org/Graphics/SVG/1.1/DTD/svg11.dtd">
<svg version="1.1" id="Layer_1" xmlns="http://www.w3.org/2000/svg" xmlns:xlink="http://www.w3.org/1999/xlink" x="0px" y="0px"
	 width="120.975px" height="78.125px" viewBox="0 0 120.975 78.125" enable-background="new 0 0 120.975 78.125"
	 xml:space="preserve">
<path fill="#FFFFFF" d="M30.184,21.033L47.524,0h-15L5.351,32.959H5.328C1.986,37.639,0,43.351,0,49.538
	c0,15.788,12.798,28.586,28.586,28.586s28.587-12.798,28.587-28.586C57.173,34.29,45.224,21.866,30.184,21.033"/>
<path fill="#FFFFFF" d="M93.985,21.033L111.325,0h-15l-27.173,32.96H69.13c-3.343,4.679-5.328,10.391-5.328,16.579
	c0,15.788,12.798,28.586,28.586,28.586s28.587-12.798,28.587-28.586C120.975,34.29,109.025,21.866,93.985,21.033"/>
</svg>
